<svg width="13" height="14" viewBox="0 0 13 14" fill="none" xmlns="http://www.w3.org/2000/svg">
<path d="M10.8832 5.31201C10.8832 5.31201 10.5212 9.80201 10.3112 11.6933C10.2112 12.5967 9.6532 13.126 8.7392 13.1427C6.99986 13.174 5.25853 13.176 3.51986 13.1393C2.64053 13.1213 2.09186 12.5853 1.99386 11.698C1.78253 9.79001 1.42253 5.31201 1.42253 5.31201" stroke="#E05453" stroke-linecap="round" stroke-linejoin="round"/>
<path d="M11.8053 3.15975H0.5" stroke="#E05453" stroke-linecap="round" stroke-linejoin="round"/>
<path d="M9.62694 3.15974C9.1036 3.15974 8.65294 2.78974 8.55027 2.27707L8.38827 1.46641C8.28827 1.09241 7.9496 0.83374 7.5636 0.83374H4.7416C4.3556 0.83374 4.01694 1.09241 3.91694 1.46641L3.75494 2.27707C3.65227 2.78974 3.2016 3.15974 2.67827 3.15974" stroke="#E05453" stroke-linecap="round" stroke-linejoin="round"/>
</svg>
