<svg width="20" height="21" viewBox="0 0 20 21" fill="none" xmlns="http://www.w3.org/2000/svg">
<path d="M7.13478 19.2733V16.2156C7.13478 15.4351 7.77217 14.8023 8.55844 14.8023H11.4326C11.8102 14.8023 12.1723 14.9512 12.4393 15.2163C12.7063 15.4813 12.8563 15.8408 12.8563 16.2156V19.2733C12.8539 19.5978 12.9821 19.9099 13.2124 20.1402C13.4427 20.3705 13.7561 20.5 14.0829 20.5H16.0438C16.9596 20.5023 17.8388 20.1428 18.4872 19.5008C19.1356 18.8588 19.5 17.987 19.5 17.0778V8.36686C19.5 7.63246 19.1721 6.93584 18.6046 6.46467L11.934 1.17587C10.7737 0.248562 9.11111 0.278502 7.98539 1.24698L1.46701 6.46467C0.872741 6.92195 0.517552 7.62064 0.5 8.36686V17.0689C0.5 18.9639 2.04738 20.5 3.95617 20.5H5.87229C6.55123 20.5 7.103 19.9562 7.10792 19.2822L7.13478 19.2733Z" fill="#2D416F"/>
</svg>
