<svg width="18" height="18" viewBox="0 0 18 18" fill="none" xmlns="http://www.w3.org/2000/svg">
<path d="M11.8748 2.15027C11.8415 2.3586 11.8248 2.56694 11.8248 2.77527C11.8248 4.65027 13.3415 6.1661 15.2082 6.1661C15.4165 6.1661 15.6165 6.14194 15.8248 6.1086V12.8328C15.8248 15.6586 14.1582 17.3336 11.3248 17.3336H5.16734C2.33317 17.3336 0.666504 15.6586 0.666504 12.8328V6.66694C0.666504 3.8336 2.33317 2.15027 5.16734 2.15027H11.8748ZM12.0423 7.21694C11.8165 7.19194 11.5923 7.29194 11.4582 7.47527L9.44234 10.0836L7.13317 8.26694C6.9915 8.1586 6.82484 8.11611 6.65817 8.13361C6.49234 8.15861 6.34234 8.24944 6.2415 8.38277L3.77567 11.5919L3.72484 11.6669C3.58317 11.9328 3.64984 12.2744 3.89984 12.4586C4.0165 12.5336 4.1415 12.5836 4.28317 12.5836C4.47567 12.5919 4.65817 12.4911 4.77484 12.3336L6.8665 9.6411L9.2415 11.4253L9.31651 11.4744C9.58317 11.6161 9.9165 11.5503 10.1082 11.2994L12.5165 8.19194L12.4832 8.2086C12.6165 8.02527 12.6415 7.79194 12.5498 7.5836C12.459 7.37527 12.2582 7.2336 12.0423 7.21694ZM15.3249 0.666687C16.4333 0.666687 17.3333 1.56669 17.3333 2.67502C17.3333 3.78335 16.4333 4.68335 15.3249 4.68335C14.2166 4.68335 13.3166 3.78335 13.3166 2.67502C13.3166 1.56669 14.2166 0.666687 15.3249 0.666687Z" fill="#818DA9"/>
</svg>
