<svg width="20" height="20" viewBox="0 0 20 20" fill="none" xmlns="http://www.w3.org/2000/svg">
<path d="M6.59984 11.2248C7.77484 11.2248 8.7165 12.1756 8.7165 13.3589V16.1998C8.7165 17.3748 7.77484 18.3331 6.59984 18.3331H3.78317C2.6165 18.3331 1.6665 17.3748 1.6665 16.1998V13.3589C1.6665 12.1756 2.6165 11.2248 3.78317 11.2248H6.59984ZM16.2166 11.2248C17.3833 11.2248 18.3333 12.1756 18.3333 13.3589V16.1998C18.3333 17.3748 17.3833 18.3331 16.2166 18.3331H13.3999C12.2249 18.3331 11.2833 17.3748 11.2833 16.1998V13.3589C11.2833 12.1756 12.2249 11.2248 13.3999 11.2248H16.2166ZM6.59984 1.66669C7.77484 1.66669 8.7165 2.62502 8.7165 3.80085V6.64169C8.7165 7.82502 7.77484 8.77502 6.59984 8.77502H3.78317C2.6165 8.77502 1.6665 7.82502 1.6665 6.64169V3.80085C1.6665 2.62502 2.6165 1.66669 3.78317 1.66669H6.59984ZM16.2166 1.66669C17.3833 1.66669 18.3333 2.62502 18.3333 3.80085V6.64169C18.3333 7.82502 17.3833 8.77502 16.2166 8.77502H13.3999C12.2249 8.77502 11.2833 7.82502 11.2833 6.64169V3.80085C11.2833 2.62502 12.2249 1.66669 13.3999 1.66669H16.2166Z" fill="#818DA9"/>
</svg>
