<svg width="20" height="14" viewBox="0 0 20 14" fill="none" xmlns="http://www.w3.org/2000/svg">
<path d="M9.95744 9.11633C12.8168 9.11633 15.2582 9.56964 15.2582 11.3836C15.2582 13.1968 12.8324 13.6666 9.95744 13.6666C7.09812 13.6666 4.65666 13.2133 4.65666 11.4001C4.65666 9.58615 7.08245 9.11633 9.95744 9.11633ZM14.5291 8.02404C15.6223 8.00378 16.7975 8.15388 17.2318 8.26045C18.1518 8.44133 18.7569 8.81057 19.0076 9.34719C19.2196 9.78773 19.2196 10.2988 19.0076 10.7386C18.6241 11.5709 17.3877 11.8381 16.9072 11.9072C16.8079 11.9222 16.7281 11.8359 16.7385 11.736C16.984 9.42974 15.0313 8.33625 14.5262 8.08484C14.5045 8.07358 14.5 8.05632 14.5023 8.04581C14.5038 8.0383 14.5127 8.0263 14.5291 8.02404ZM5.2654 8.02249L5.47125 8.02434C5.48767 8.0266 5.49587 8.0386 5.49737 8.04536C5.49961 8.05662 5.49513 8.07313 5.47424 8.08513C4.96833 8.33655 3.01561 9.43004 3.2611 11.7356C3.27155 11.8362 3.19245 11.9217 3.09321 11.9075C2.61268 11.8384 1.37628 11.5712 0.992746 10.7389C0.780087 10.2984 0.780087 9.78803 0.992746 9.34749C1.24346 8.81087 1.84786 8.44163 2.76788 8.26C3.2029 8.15418 4.37737 8.00408 5.47125 8.02434L5.2654 8.02249ZM9.95744 0.333313C11.9042 0.333313 13.4652 1.90187 13.4652 3.86069C13.4652 5.81876 11.9042 7.38882 9.95744 7.38882C8.01069 7.38882 6.4497 5.81876 6.4497 3.86069C6.4497 1.90187 8.01069 0.333313 9.95744 0.333313ZM14.7194 0.921559C16.5998 0.921559 18.0764 2.70101 17.5735 4.68309C17.234 6.01749 16.0051 6.90384 14.6358 6.86782C14.4986 6.86406 14.3635 6.8513 14.2329 6.82879C14.1382 6.81228 14.0904 6.70496 14.1441 6.6254C14.6664 5.85238 14.9642 4.9225 14.9642 3.92433C14.9642 2.88263 14.6388 1.91148 14.074 1.11519C14.0561 1.09042 14.0426 1.05215 14.0605 1.02363C14.0755 1.00036 14.1031 0.988354 14.1292 0.98235C14.3195 0.943324 14.515 0.921559 14.7194 0.921559ZM5.27986 0.921484C5.48431 0.921484 5.67981 0.943249 5.87082 0.982275C5.89619 0.988279 5.92455 1.00104 5.93947 1.02355C5.95663 1.05207 5.94395 1.09035 5.92604 1.11511C5.36119 1.9114 5.03586 2.88256 5.03586 3.92426C5.03586 4.92243 5.33358 5.85231 5.8559 6.62533C5.90963 6.70488 5.86187 6.8122 5.76711 6.82871C5.63578 6.85198 5.50147 6.86399 5.36418 6.86774C3.99496 6.90376 2.76602 6.01742 2.42651 4.68302C1.92285 2.70093 3.39951 0.921484 5.27986 0.921484Z" fill="#818DA9"/>
</svg>
